<svg width="124" height="100" viewBox="0 0 124 100" fill="none" xmlns="http://www.w3.org/2000/svg">
<path d="M118.834 79.1667C118.834 81.3768 117.745 83.4964 115.807 85.0592C113.869 86.622 111.241 87.5 108.5 87.5H15.5003C12.7598 87.5 10.1314 86.622 8.19356 85.0592C6.25568 83.4964 5.16699 81.3768 5.16699 79.1667V33.3333C5.16699 31.1232 6.25568 29.0036 8.19356 27.4408C10.1314 25.878 12.7598 25 15.5003 25H36.167L46.5003 12.5H77.5003L87.8337 25H108.5C111.241 25 113.869 25.878 115.807 27.4408C117.745 29.0036 118.834 31.1232 118.834 33.3333V79.1667Z" stroke="#1E1E1E" stroke-width="4" stroke-linecap="round" stroke-linejoin="round"/>
<path d="M62.0003 70.8333C73.4142 70.8333 82.667 63.3714 82.667 54.1667C82.667 44.9619 73.4142 37.5 62.0003 37.5C50.5864 37.5 41.3337 44.9619 41.3337 54.1667C41.3337 63.3714 50.5864 70.8333 62.0003 70.8333Z" stroke="#1E1E1E" stroke-width="4" stroke-linecap="round" stroke-linejoin="round"/>
</svg>
